<?xml version="1.0" encoding="UTF-8"?>
<!DOCTYPE svg PUBLIC "-//W3C//DTD SVG 1.1//EN" "http://www.w3.org/Graphics/SVG/1.1/DTD/svg11.dtd">
<svg xmlns="http://www.w3.org/2000/svg" version="1.1" width="34px" height="36px" style="shape-rendering:geometricPrecision; text-rendering:geometricPrecision; image-rendering:optimizeQuality; fill-rule:evenodd; clip-rule:evenodd" xmlns:xlink="http://www.w3.org/1999/xlink">
<g><path style="opacity:0.72" fill="#000000" d="M 19.5,3.5 C 22.8333,3.83333 26.1667,4.16667 29.5,4.5C 30.0508,7.80673 30.3841,11.1401 30.5,14.5C 28.2341,14.8588 26.4007,14.1922 25,12.5C 23.2599,14.9535 21.0933,16.4535 18.5,17C 16.2337,13.4758 17.2337,10.8092 21.5,9C 19.8078,7.59928 19.1412,5.76595 19.5,3.5 Z"/></g>
<g><path style="opacity:0.726" fill="#000000" d="M 12.5,17.5 C 14.3841,17.7118 15.7174,18.7118 16.5,20.5C 15.018,22.4829 13.3513,24.3163 11.5,26C 13.1922,27.4007 13.8588,29.2341 13.5,31.5C 10.1667,31.1667 6.83333,30.8333 3.5,30.5C 3.16667,27.1667 2.83333,23.8333 2.5,20.5C 4.76595,20.1412 6.59928,20.8078 8,22.5C 9.02496,20.313 10.525,18.6464 12.5,17.5 Z"/></g>
</svg>
